<svg xmlns="http://www.w3.org/2000/svg" x="0px" y="0px" width="70" height="70" viewBox="0 0 100 100">
<path d="M93.817,50.742c2.703-0.788,4.683-3.288,4.683-6.242c0-3.584-2.916-6.5-6.5-6.5h-8V22.375	C84,14.046,78.375,8,70.625,8h-37.25C25.625,8,20,14.046,20,22.375V38H10c-3.584,0-6.5,2.916-6.5,6.5	c0,3.252,2.401,2.954,5.524,3.427L9.3,51.539c-1.924,1.627-2.736,4.251-2.068,6.684c0.484,1.758,1.682,3.205,3.246,4.03L7.5,67	c-1.023,2.454-0.463,5.249,1.427,7.12c1.226,1.213,2.85,1.879,4.573,1.879c0.475,0,0.943-0.051,1.401-0.152l0.13,1.3	c0.261,2.602,2.042,4.784,4.538,5.56c0.653,0.197,1.288,0.291,1.928,0.291c1.802,0,3.509-0.74,4.734-2.042	c3.148,5.273,9.373,11.204,21.662,14.505c1.335,0.359,2.717,0.541,4.106,0.541c1.393,0,2.777-0.183,4.114-0.544	c11.796-3.173,17.981-8.928,21.221-13.969c1.158,0.968,2.627,1.508,4.167,1.508c0.641,0,1.278-0.094,1.893-0.281	c2.531-0.787,4.312-2.969,4.573-5.569l0.13-1.302c0.46,0.102,0.927,0.152,1.4,0.152c1.719,0,3.341-0.664,4.565-1.869	c1.9-1.881,2.46-4.676,1.437-7.13l-1.979-4.748c1.536-0.812,2.722-2.224,3.22-3.935c0.693-2.379-0.05-4.99-1.895-6.649	L93.817,50.742z" opacity=".35"></path><path fill="#f2f2f2" d="M91.817,48.742c2.703-0.788,4.683-3.288,4.683-6.242c0-3.584-2.916-6.5-6.5-6.5h-8V20.375	C82,12.046,76.375,6,68.625,6h-37.25C23.625,6,18,12.046,18,20.375V36H8c-3.584,0-6.5,2.916-6.5,6.5	c0,3.252,2.401,5.954,5.524,6.427L6.3,49.539c-1.924,1.627-2.736,4.251-2.068,6.684c0.484,1.758,1.682,3.205,3.246,4.03L5.5,65	c-1.023,2.454-0.463,5.249,1.427,7.12c1.226,1.213,2.85,1.879,4.573,1.879c0.475,0,0.943-0.051,1.401-0.152l0.13,1.3	c0.261,2.602,2.042,4.784,4.538,5.56c0.653,0.197,1.288,0.291,1.928,0.291c1.802,0,3.509-0.74,4.734-2.042	c3.148,5.273,9.373,11.204,21.662,14.505c1.335,0.359,2.717,0.541,4.106,0.541c1.393,0,2.777-0.183,4.114-0.544	c11.796-3.173,17.981-8.928,21.221-13.969c1.158,0.968,2.627,1.508,4.167,1.508c0.641,0,1.278-0.094,1.893-0.281	c2.531-0.787,4.312-2.969,4.573-5.569l0.13-1.302c0.46,0.102,0.927,0.152,1.4,0.152c1.719,0,3.341-0.664,4.565-1.869	c1.9-1.881,2.46-4.676,1.437-7.13l-1.979-4.748c1.536-0.812,2.722-2.224,3.22-3.935c0.693-2.379-0.05-4.99-1.895-6.649	L91.817,48.742z"></path><polygon fill="#707cc0" points="27.913,39.761 10.5,54.5 16.5,55.5 11.5,67.5 18.5,64.5 19.5,74.5 30.5,63.5 31.5,39.5"></polygon><polygon fill="#707cc0" points="72.087,39.761 88.5,54.5 82.5,55.5 87.5,67.5 80.5,64.5 79.5,74.5 69.5,63.5 67.5,39.5"></polygon><path fill="#ffd2b5" d="M79,55c-1.558-3.117-4.894-3.643-7-2V43H28v10c-2.106-1.643-6.54-1.318-8.03,1.833	C18,59,22,63,27.5,65.413v2.453c0,6.551,5.213,15.326,20.08,19.319c1.582,0.425,3.26,0.425,4.842-0.001	C67.287,83.185,72.5,74.352,72.5,67.866v-2.453C78,63,81,59,79,55z"></path><path fill="#d47f56" d="M45,65h9c0,0-2.25,2.917-4.5,2.917S45,65,45,65z"></path><circle cx="39" cy="57" r="7" fill="#fff"></circle><circle cx="61" cy="57" r="7" fill="#fff"></circle><circle cx="38.958" cy="58.042" r="1.874" fill="#40396e"></circle><circle cx="60.958" cy="58.042" r="1.874" fill="#40396e"></circle><path fill="#fff" d="M34,71c2.103,5.79,8.469,10,16,10s13.897-4.21,16-10H34z"></path><path fill="none" stroke="#40396e" stroke-linecap="round" stroke-linejoin="round" stroke-miterlimit="10" stroke-width="3" d="M27.913,39.761L10.5,54.5l6,1l-5,12l7-3l1,10l6.753-7.981c0.406,0.179,0.821,0.342,1.247,0.481v0.866	c0,6.551,5.213,15.326,20.08,19.319c1.582,0.425,3.26,0.425,4.842-0.001C67.287,83.185,72.5,74.352,72.5,67.866V67	c0.169-0.055,0.33-0.126,0.495-0.187L79.5,74.5l1-10l7,3l-5-12l6-1L72.087,39.761"></path><path fill="#f9b84f" d="M68.625,12.5h-37.25c-4.349,0-6.875,3.526-6.875,7.875V42.5h51V20.375	C75.5,16.026,72.974,12.5,68.625,12.5z"></path><line x1="8" x2="90" y1="42.5" y2="42.5" fill="none" stroke="#40396e" stroke-linecap="round" stroke-linejoin="round" stroke-miterlimit="10" stroke-width="3"></line><rect width="52" height="12" x="24" y="29" fill="#de5147"></rect><path fill="none" stroke="#40396e" stroke-linecap="round" stroke-linejoin="round" stroke-miterlimit="10" stroke-width="3" d="M68.625,12.5h-37.25c-4.349,0-6.875,3.526-6.875,7.875V42.5h51V20.375C75.5,16.026,72.974,12.5,68.625,12.5z"></path><path fill="none" stroke="#f9ae34" stroke-linecap="round" stroke-linejoin="round" stroke-miterlimit="10" stroke-width="3" d="M35,46.5c0,0,3.636-1.125,8,0"></path><path fill="none" stroke="#f9ae34" stroke-linecap="round" stroke-linejoin="round" stroke-miterlimit="10" stroke-width="3" d="M57,46.5c0,0,3.636-1.125,8,0"></path>
</svg>